PathFileType	4	(X/Y/Z)	C:\Users\Public\Documents\Vicon Data\AADs Machine\Frameless Spring Test\Dec182020\10lbsSpring1.trc
DataRate	CameraRate	NumFrames	NumMarkers	Units	OrigDataRate	OrigDataStartFrame	OrigNumFrames
100.0	100.0	16	9	mm	100.0	781	1041	
Frame#	Time	Heel			MP5			Toe			MMAL			LMAL			Shank			SpringTop			LateralKnee			MedialKnee			
		X1	Y1	Z1	X2	Y2	Z2	X3	Y3	Z3	X4	Y4	Z4	X5	Y5	Z5	X6	Y6	Z6	X7	Y7	Z7	X8	Y8	Z8	X9	Y9	Z9	
781	7.8	-195.28671	46.349674	-769.81396	-238.85767	38.188046	-597.72308	-170.36671	40.033985	-529.47437	-121.63286	110.50342	-710.81305	-243.55736	119.0536	-701.40967	-163.33229	244.48749	-592.41779	-186.08116	202.56142	-729.28265	-196.81607	455.97235	-593.33069	-120.06047	450.0578	-596.01215
782	7.81	-195.28256	46.353161	-769.78015	-238.88506	38.183849	-597.72729	-170.39766	40.000763	-529.4707	-121.62533	110.52508	-710.81042	-243.51398	119.01733	-701.40906	-163.37988	244.77473	-592.80829	-185.94579	202.59338	-729.49445	-196.94438	456.31882	-594.24823	-120.16248	450.28763	-597.03668
783	7.82	-195.19325	46.379047	-769.82867	-238.86638	38.211903	-597.76733	-170.39922	39.981663	-529.49133	-121.53519	110.5407	-710.82849	-243.47758	119.10136	-701.41693	-163.36249	245.08974	-593.2348	-185.84772	202.57484	-729.74371	-196.13037	456.22208	-595.72473	-120.36484	450.4552	-598.00378
784	7.83	-195.1774	46.35981	-769.81317	-238.87759	38.219734	-597.77179	-170.45181	39.943138	-529.46124	-121.52007	110.51939	-710.79376	-243.46875	119.08539	-701.46472	-163.40884	245.41702	-593.63013	-186.09282	202.45923	-730.42029	-195.9928	456.3504	-596.96838	-120.40412	450.78412	-598.97192
785	7.84	-195.10387	46.345257	-769.79419	-238.83975	38.212818	-597.81323	-170.47232	39.9282	-529.46228	-121.43162	110.53214	-710.79193	-243.35339	119.0093	-701.57599	-163.3412	245.83542	-594.07129	-186.07953	202.37416	-730.72266	-195.12367	455.86911	-598.69934	-120.34338	451.25418	-599.94153
786	7.85	-194.94994	46.373661	-769.88318	-238.84782	38.199947	-597.85388	-170.52866	39.883972	-529.50867	-121.35998	110.52845	-710.7981	-243.3002	119.054	-701.60144	-163.36061	246.23785	-594.51331	-186.01816	202.29787	-731.0744	-196.89783	457.60928	-598.51007	-120.46346	451.63748	-600.92743
787	7.86	-194.97456	46.392178	-769.81494	-238.87766	38.223164	-597.89832	-170.56061	39.890152	-529.49805	-121.33822	110.59511	-710.82355	-243.31036	119.08298	-701.6366	-163.4791	246.57658	-594.9303	-185.98782	202.27806	-731.3609	-197.08911	457.99939	-599.60303	-120.7205	451.96332	-602.00305
788	7.87	-194.8773	46.377102	-769.8349	-238.82382	38.204033	-597.89886	-170.58369	39.871151	-529.4621	-121.21091	110.62045	-710.83588	-243.19373	118.98663	-701.70563	-163.5627	246.90385	-595.27167	-185.97388	202.19136	-731.64319	-197.38692	458.14188	-600.7804	-120.99081	452.10001	-603.01154
789	7.88	-194.80711	46.36274	-769.89941	-238.86589	38.172058	-597.94287	-170.6039	39.827747	-529.48889	-121.23389	110.56667	-710.82324	-243.25127	119.01196	-701.7135	-163.52623	247.21675	-595.68726	-185.99052	202.10463	-731.91138	-197.67093	458.57748	-601.64484	-120.92044	452.45599	-604.00403
790	7.89	-194.79219	46.410168	-769.88422	-238.85822	38.210381	-597.9397	-170.59163	39.843643	-529.50287	-121.19122	110.64593	-710.84747	-243.22122	119.08978	-701.69464	-163.60321	247.55176	-596.05536	-186.03424	202.07208	-732.15118	-198.09068	459.05627	-602.47626	-121.00076	452.90048	-604.81073
791	7.9	-194.80711	46.370186	-769.82904	-238.8494	38.204487	-597.93347	-170.59229	39.818497	-529.47137	-121.16663	110.63174	-710.82813	-243.16861	118.98096	-701.79547	-163.57957	247.74048	-596.46741	-186.01015	201.97849	-732.37933	-197.99179	459.20587	-603.42706	-121.14233	453.16254	-605.63867
792	7.91	-194.77844	46.366341	-769.91211	-238.83434	38.202255	-597.93872	-170.60602	39.791912	-529.49078	-121.18622	110.58516	-710.84399	-243.16998	118.9634	-701.84875	-163.56299	247.95456	-596.85443	-186.06183	201.90816	-732.64508	-198.95392	459.59668	-603.96741	-121.39182	453.21591	-606.46619
793	7.92	-194.79959	46.418953	-769.8244	-238.87402	38.202713	-597.94995	-170.61581	39.78899	-529.4679	-121.21536	110.6527	-710.80927	-243.21245	119.05383	-701.75208	-163.63867	248.22675	-597.15582	-186.09764	201.91158	-732.80621	-198.58592	459.62601	-604.91547	-121.61298	453.30643	-607.26038
794	7.93	-194.75534	46.380138	-769.85266	-238.85934	38.18269	-597.95178	-170.60966	39.744858	-529.49805	-121.09609	110.64355	-710.87134	-243.1234	118.98898	-701.82422	-163.65547	248.45004	-597.49133	-186.01387	201.82666	-733.05011	-197.64192	459.27933	-606.12585	-121.50877	453.66882	-607.98364
795	7.94	-194.78481	46.362518	-769.85748	-238.83987	38.188911	-597.96899	-170.61702	39.743359	-529.46521	-121.04902	110.65055	-710.96246	-243.11099	118.91515	-701.91101	-163.68561	248.69199	-597.77643	-186.07967	201.72708	-733.25977	-196.62569	458.75589	-607.55768	-121.34767	453.97067	-608.58856
796	7.95	-194.68454	46.421112	-769.87524	-238.85539	38.190887	-597.97107	-170.66754	39.706478	-529.45544	-121.03996	110.67509	-710.89886	-243.16409	119.02028	-701.80585	-163.64873	248.91515	-598.05316	-186.07767	201.69798	-733.44745	-197.24634	459.36832	-607.84857	-121.32303	454.15411	-609.32404
